<svg width="37" height="41" viewBox="0 0 37 41" fill="none" xmlns="http://www.w3.org/2000/svg">
<path d="M1.41784 39.2983L1.30325 39.1905C0.854441 38.7232 0.589478 37.9978 0.589478 37.0583V37.2794V3.72031C0.589478 3.71728 0.589478 3.715 0.589478 3.71258C0.589478 3.71546 0.589478 3.71789 0.589478 3.72092V3.94262C0.589478 2.92534 0.898397 2.15905 1.41599 1.69958L20.5246 20.4996L1.41784 39.2983ZM0.589478 3.71076C0.589478 3.62715 0.591791 3.54596 0.596109 3.466C0.591791 3.54536 0.589478 3.62715 0.589478 3.71076ZM0.596109 3.46236C0.596109 3.4613 0.596108 3.46008 0.596571 3.45887C0.596108 3.46008 0.596109 3.4613 0.596109 3.46236ZM0.596571 3.45174C0.596571 3.45113 0.596571 3.45052 0.596571 3.44991C0.596571 3.45052 0.596571 3.45113 0.596571 3.45174Z" fill="url(#paint0_linear)"/>
<path d="M26.8932 26.9902L27.0385 26.9091L34.5848 22.6905C35.3043 22.2881 35.7837 21.8002 36.023 21.284C35.7844 21.8002 35.3047 22.2887 34.5848 22.6911L27.0385 26.9097L26.8932 26.9902ZM26.8951 26.7679L20.5247 20.4992L26.8945 14.2315L34.5848 18.5301C35.5614 19.076 36.1096 19.7796 36.2012 20.4986C36.2012 20.4992 36.2012 20.5004 36.2012 20.5015C36.1096 21.2188 35.5614 21.923 34.5848 22.4688L26.8951 26.7679Z" fill="url(#paint1_linear)"/>
<path d="M2.78001 40.0142C2.24623 40.0142 1.78046 39.8435 1.41725 39.521L1.41787 39.5204C1.78107 39.8428 2.24746 40.0142 2.78125 40.0142C2.82752 40.0142 2.87456 40.0129 2.92221 40.0107C2.87394 40.0129 2.82628 40.0142 2.78001 40.0142ZM2.78063 39.7919C2.24684 39.7925 1.78107 39.6211 1.41787 39.2987V39.2982L20.5247 20.4995L26.8951 26.7682L4.50845 39.2828C3.88907 39.6283 3.30223 39.7919 2.78063 39.7919ZM1.41247 39.5169C1.37869 39.4867 1.34553 39.4547 1.31299 39.4215L1.41247 39.5169Z" fill="url(#paint2_linear)"/>
<path d="M20.5247 20.4995L1.41602 1.69953C1.77922 1.37768 2.24438 1.20697 2.77755 1.20697C3.30054 1.20697 3.88784 1.37116 4.50846 1.71728L26.8945 14.2318L20.5247 20.4995ZM27.0385 14.0903L4.50846 1.49574C3.88784 1.14946 3.30054 0.985281 2.77755 0.985281C2.77508 0.985281 2.77338 0.985281 2.77092 0.985281C2.774 0.985281 2.77631 0.985281 2.78001 0.985281C3.30177 0.985281 3.88846 1.14886 4.50846 1.49513L27.0385 14.0903Z" fill="url(#paint3_linear)"/>
<path d="M2.92216 40.0107C3.40706 39.9834 3.94393 39.8192 4.50841 39.5045L26.8932 26.9906L4.50841 39.5045C3.94439 39.8199 3.40706 39.9834 2.92216 40.0107ZM1.4172 39.5211L1.41242 39.517C1.41411 39.5182 1.41596 39.5199 1.4172 39.5211ZM1.31294 39.4215L1.30322 39.4121V39.4115C1.30692 39.415 1.30986 39.4185 1.31294 39.4215Z" fill="black"/>
<path d="M26.8932 26.9902L27.0385 26.9091L26.8932 26.9902Z" fill="url(#paint4_linear)"/>
<path d="M2.7812 40.0142C2.24741 40.0142 1.78103 39.8428 1.41782 39.5204L1.4172 39.521C1.41596 39.5198 1.41411 39.5181 1.41242 39.5169L1.31294 39.4215C1.30986 39.4184 1.30692 39.4149 1.30322 39.4114L1.41782 39.2987C1.78103 39.6211 2.2468 39.7925 2.78058 39.7919C3.30218 39.7919 3.88902 39.6283 4.50841 39.2828L26.895 26.7682L27.0385 26.9093L26.8932 26.9905L4.50841 39.5045C3.94393 39.8192 3.40706 39.9834 2.92216 40.0107C2.87451 40.0129 2.82747 40.0142 2.7812 40.0142Z" fill="url(#paint5_linear)"/>
<path d="M1.30325 39.4121C0.854441 38.9449 0.589478 38.2194 0.589478 37.28V37.2794C0.589478 38.2194 0.854441 38.9443 1.30325 39.4115V39.4121Z" fill="black"/>
<path d="M1.30325 39.4116C0.854442 38.9444 0.589478 38.2195 0.589478 37.2795V37.0584C0.589478 37.9978 0.854442 38.7233 1.30325 39.1905L1.41784 39.2984L1.30325 39.4116Z" fill="url(#paint6_linear)"/>
<path d="M1.30322 39.4116L1.41781 39.2984V39.2989L1.30322 39.4116Z" fill="url(#paint7_linear)"/>
<path d="M36.0229 21.2847C36.1416 21.0285 36.2012 20.7654 36.2012 20.5021C36.2012 20.5017 36.2012 20.5011 36.2012 20.5011C36.2012 20.7648 36.1416 21.0279 36.0229 21.2847Z" fill="black"/>
<path d="M27.0385 26.9092L26.895 26.7681L34.5847 22.4689C35.5613 21.9231 36.1096 21.2189 36.2012 20.5016C36.2012 20.7649 36.1415 21.028 36.0229 21.2841C35.7837 21.8003 35.3042 22.2882 34.5847 22.6906L27.0385 26.9092Z" fill="url(#paint8_linear)"/>
<path d="M36.2012 20.4995V20.4989C36.2006 19.7051 35.6614 18.9115 34.5847 18.3093L27.0385 14.0907H27.0378L27.0385 14.0903L34.5847 18.3087C35.6626 18.9109 36.2024 19.7058 36.2012 20.4995Z" fill="#404040"/>
<path d="M36.2012 20.4985C36.1096 19.7796 35.5613 19.076 34.5847 18.53L26.8944 14.2315L27.0378 14.0903H27.0385L34.5847 18.3089C35.6614 18.9112 36.2006 19.7048 36.2012 20.4985Z" fill="url(#paint9_linear)"/>
<path d="M0.589478 3.7124C0.589478 3.7118 0.589478 3.71119 0.589478 3.71058C0.589478 3.71119 0.589478 3.7118 0.589478 3.7124ZM0.596109 3.46582C0.596109 3.46461 0.596109 3.4634 0.596109 3.46218C0.596109 3.4634 0.596109 3.46461 0.596109 3.46582ZM0.596571 3.45869C0.596571 3.45626 0.596571 3.45399 0.596571 3.45156C0.596571 3.45399 0.596571 3.45626 0.596571 3.45869ZM0.596571 3.44974C0.685869 1.8909 1.54739 0.990471 2.76611 0.98516C2.23772 0.988194 1.7775 1.1589 1.41722 1.47832V1.47771L1.4129 1.48196C1.37496 1.51564 1.33887 1.5513 1.30325 1.58803C0.898397 2.00941 0.642993 2.64066 0.596571 3.44974Z" fill="#404040"/>
<path d="M0.589478 3.94287V3.72118C0.589478 3.71814 0.589478 3.71572 0.589478 3.71283C0.589478 3.71223 0.589478 3.71162 0.589478 3.71101C0.589478 3.6274 0.591791 3.54561 0.596109 3.46625C0.596109 3.46504 0.596109 3.46383 0.596109 3.46261C0.596109 3.46155 0.596108 3.46033 0.596571 3.45912C0.596571 3.45669 0.596571 3.45442 0.596571 3.45199C0.596571 3.45138 0.596571 3.45078 0.596571 3.45017C0.642994 2.64108 0.898398 2.00984 1.30325 1.58845L1.41599 1.69983C0.898399 2.1593 0.589478 2.9256 0.589478 3.94287ZM1.41291 1.48238L1.41723 1.47814C1.41599 1.47996 1.41414 1.48117 1.41291 1.48238Z" fill="url(#paint10_linear)"/>
<path d="M26.8944 14.2314L4.50841 1.71688C3.88779 1.37076 3.30049 1.20658 2.7775 1.20658C2.24433 1.20658 1.77917 1.37729 1.41596 1.69913L1.30322 1.58775C1.33885 1.55103 1.37494 1.51537 1.41288 1.48168C1.41411 1.48047 1.41596 1.47926 1.4172 1.47804C1.77748 1.15863 2.2377 0.987917 2.76608 0.984882C2.76732 0.984882 2.76901 0.984882 2.77087 0.984882C2.77333 0.984882 2.77503 0.984882 2.7775 0.984882C3.30049 0.984882 3.88779 1.14906 4.50841 1.49534L27.0385 14.0899L27.0379 14.0903L26.8944 14.2314Z" fill="url(#paint11_linear)"/>
<defs>
<linearGradient id="paint0_linear" x1="18.8303" y1="3.3663" x2="-6.63234" y2="29.2463" gradientUnits="userSpaceOnUse">
<stop stop-color="#00A0FF"/>
<stop offset="0.00657445" stop-color="#00A1FF"/>
<stop offset="0.2601" stop-color="#00BEFF"/>
<stop offset="0.5122" stop-color="#00D2FF"/>
<stop offset="0.7604" stop-color="#00DFFF"/>
<stop offset="1" stop-color="#00E3FF"/>
</linearGradient>
<linearGradient id="paint1_linear" x1="37.3911" y1="20.5001" x2="0.0723728" y2="20.5001" gradientUnits="userSpaceOnUse">
<stop stop-color="#FFE000"/>
<stop offset="0.4087" stop-color="#FFBD00"/>
<stop offset="0.7754" stop-color="#FFA500"/>
<stop offset="1" stop-color="#FF9C00"/>
</linearGradient>
<linearGradient id="paint2_linear" x1="23.4991" y1="23.9824" x2="-11.0301" y2="59.0776" gradientUnits="userSpaceOnUse">
<stop stop-color="#FF3A44"/>
<stop offset="1" stop-color="#C31162"/>
</linearGradient>
<linearGradient id="paint3_linear" x1="-3.53673" y1="-9.58259" x2="11.8819" y2="6.08884" gradientUnits="userSpaceOnUse">
<stop stop-color="#32A071"/>
<stop offset="0.0685" stop-color="#2DA771"/>
<stop offset="0.4762" stop-color="#15CF74"/>
<stop offset="0.8009" stop-color="#06E775"/>
<stop offset="1" stop-color="#00F076"/>
</linearGradient>
<linearGradient id="paint4_linear" x1="37.391" y1="20.5008" x2="0.0724818" y2="20.5008" gradientUnits="userSpaceOnUse">
<stop stop-color="#CCB300"/>
<stop offset="0.4087" stop-color="#CC9700"/>
<stop offset="0.7754" stop-color="#CC8400"/>
<stop offset="1" stop-color="#CC7D00"/>
</linearGradient>
<linearGradient id="paint5_linear" x1="23.4991" y1="23.9824" x2="-11.0301" y2="59.0776" gradientUnits="userSpaceOnUse">
<stop stop-color="#CC2E36"/>
<stop offset="1" stop-color="#9C0E4E"/>
</linearGradient>
<linearGradient id="paint6_linear" x1="18.8304" y1="3.36633" x2="-6.63229" y2="29.2465" gradientUnits="userSpaceOnUse">
<stop stop-color="#008DE0"/>
<stop offset="0.00657445" stop-color="#008DE0"/>
<stop offset="0.2601" stop-color="#00A7E0"/>
<stop offset="0.5122" stop-color="#00B8E0"/>
<stop offset="0.7604" stop-color="#00C4E0"/>
<stop offset="1" stop-color="#00C7E0"/>
</linearGradient>
<linearGradient id="paint7_linear" x1="23.499" y1="23.983" x2="-11.0291" y2="59.0781" gradientUnits="userSpaceOnUse">
<stop stop-color="#E0333C"/>
<stop offset="1" stop-color="#AB0F56"/>
</linearGradient>
<linearGradient id="paint8_linear" x1="37.3911" y1="20.5002" x2="0.0723014" y2="20.5002" gradientUnits="userSpaceOnUse">
<stop stop-color="#E0C500"/>
<stop offset="0.4087" stop-color="#E0A600"/>
<stop offset="0.7754" stop-color="#E09100"/>
<stop offset="1" stop-color="#E08900"/>
</linearGradient>
<linearGradient id="paint9_linear" x1="37.3911" y1="20.5001" x2="0.0723486" y2="20.5001" gradientUnits="userSpaceOnUse">
<stop stop-color="#FFE840"/>
<stop offset="0.4087" stop-color="#FFCE40"/>
<stop offset="0.7754" stop-color="#FFBC40"/>
<stop offset="1" stop-color="#FFB540"/>
</linearGradient>
<linearGradient id="paint10_linear" x1="18.8303" y1="3.36656" x2="-6.63227" y2="29.2467" gradientUnits="userSpaceOnUse">
<stop stop-color="#40B8FF"/>
<stop offset="0.00657445" stop-color="#40B9FF"/>
<stop offset="0.2601" stop-color="#40CEFF"/>
<stop offset="0.5122" stop-color="#40DDFF"/>
<stop offset="0.7604" stop-color="#40E7FF"/>
<stop offset="1" stop-color="#40EAFF"/>
</linearGradient>
<linearGradient id="paint11_linear" x1="-3.53679" y1="-9.58299" x2="11.8819" y2="6.08844" gradientUnits="userSpaceOnUse">
<stop stop-color="#65B895"/>
<stop offset="0.0685" stop-color="#62BD95"/>
<stop offset="0.4762" stop-color="#50DB97"/>
<stop offset="0.8009" stop-color="#44ED98"/>
<stop offset="1" stop-color="#40F498"/>
</linearGradient>
</defs>
</svg>
