<svg width="49" height="34" viewBox="0 0 49 34" fill="none" xmlns="http://www.w3.org/2000/svg">
<path d="M47.5585 5.37082C47.2871 4.34965 46.7523 3.41766 46.0076 2.66813C45.2628 1.9186 44.3343 1.37782 43.3149 1.09991C39.5621 0.0908204 24.5621 0.0908203 24.5621 0.0908203C24.5621 0.0908203 9.56213 0.0908204 5.80941 1.09991C4.78999 1.37782 3.86145 1.9186 3.11671 2.66813C2.37197 3.41766 1.83714 4.34965 1.56577 5.37082C0.562134 9.13991 0.562134 16.9999 0.562134 16.9999C0.562134 16.9999 0.562134 24.8599 1.56577 28.629C1.83714 29.6502 2.37197 30.5822 3.11671 31.3317C3.86145 32.0812 4.78999 32.622 5.80941 32.8999C9.56213 33.909 24.5621 33.909 24.5621 33.909C24.5621 33.909 39.5621 33.909 43.3149 32.8999C44.3343 32.622 45.2628 32.0812 46.0076 31.3317C46.7523 30.5822 47.2871 29.6502 47.5585 28.629C48.5621 24.8599 48.5621 16.9999 48.5621 16.9999C48.5621 16.9999 48.5621 9.13991 47.5585 5.37082Z" fill="white"/>
<path d="M19.6531 24.1373V9.86279L32.1985 17.0001L19.6531 24.1373Z" fill="#B5179E"/>
</svg>
