<svg width="261" height="533" viewBox="0 0 261 533" fill="none" xmlns="http://www.w3.org/2000/svg">
<path d="M0.574837 158.329C0.648167 158.329 1.30814 158.329 1.30814 158.329L1.30814 197.543C1.30814 197.543 0.648167 197.543 0.574837 197.543C0.501507 197.543 0.354847 197.316 0.354847 197.164C0.354847 197.013 0.354847 158.784 0.354847 158.632C0.281517 158.481 0.501507 158.329 0.574837 158.329Z" fill="#1477F8"/>
<path opacity="0.58" d="M0.574837 158.329C0.648167 158.329 1.30814 158.329 1.30814 158.329L1.30814 197.543C1.30814 197.543 0.648167 197.543 0.574837 197.543C0.501507 197.543 0.354847 197.316 0.354847 197.164C0.354847 197.013 0.354847 158.784 0.354847 158.632C0.281517 158.481 0.501507 158.329 0.574837 158.329Z" fill="#1477F8"/>
<rect x="2.62793" y="197.782" width="1.39327" height="39.9707" transform="rotate(-180 2.62793 197.782)" fill="#1477F8"/>
<path d="M259.806 184.598C259.732 184.598 259.073 184.598 259.073 184.598V122.371C259.073 122.371 259.732 122.371 259.806 122.371C259.879 122.371 260.026 122.598 260.026 122.749C260.026 122.825 260.026 184.144 260.026 184.295C260.026 184.371 259.879 184.598 259.806 184.598Z" fill="#1477F8"/>
<path d="M259.595 184.598C259.521 184.598 258.861 184.598 258.861 184.598V122.371C258.861 122.371 259.521 122.371 259.595 122.371C259.668 122.371 259.815 122.598 259.815 122.749C259.815 122.825 259.815 184.144 259.815 184.295C259.815 184.371 259.668 184.598 259.595 184.598Z" fill="#1477F8"/>
<rect x="257.542" y="122.068" width="1.39327" height="62.9084" fill="#1477F8"/>
<path d="M0.574971 106.852C0.648301 106.852 1.30827 106.852 1.30827 106.852L1.30827 146.066C1.30827 146.066 0.648301 146.066 0.574971 146.066C0.501641 146.066 0.35498 145.839 0.35498 145.687C0.35498 145.612 0.35498 107.306 0.35498 107.155C0.35498 107.003 0.501641 106.852 0.574971 106.852Z" fill="#1477F8"/>
<path opacity="0.58" d="M0.785908 106.852C0.859238 106.852 1.51921 106.852 1.51921 106.852L1.51921 146.066C1.51921 146.066 0.859238 146.066 0.785908 146.066C0.712578 146.066 0.565918 145.839 0.565918 145.687C0.565918 145.612 0.565918 107.306 0.565918 107.155C0.565918 107.003 0.712578 106.852 0.785908 106.852Z" fill="#1477F8"/>
<rect x="2.62817" y="146.423" width="1.39327" height="39.9707" transform="rotate(-180 2.62817 146.423)" fill="#1477F8"/>
<path d="M0.950459 69.8337C1.02379 69.8337 1.68376 69.8337 1.68376 69.8337L1.68376 90.0462C1.68376 90.0462 1.02379 90.0462 0.950459 90.0462C0.877129 90.0462 0.730469 89.8191 0.730469 89.6677C0.730469 89.592 0.730469 70.288 0.730469 70.1365C0.730469 69.9851 0.877129 69.8337 0.950459 69.8337Z" fill="#1477F8"/>
<path opacity="0.58" d="M1.1614 69.8337C1.23473 69.8337 1.8947 69.8337 1.8947 69.8337L1.8947 90.0462C1.8947 90.0462 1.23473 90.0462 1.1614 90.0462C1.08807 90.0462 0.941406 89.8191 0.941406 89.6677C0.941406 89.592 0.941406 70.288 0.941406 70.1365C0.941406 69.9851 1.08807 69.8337 1.1614 69.8337Z" fill="#1477F8"/>
<rect x="2.95996" y="90.272" width="1.39327" height="20.9695" transform="rotate(-180 2.95996 90.272)" fill="#1477F8"/>
<rect x="3.49367" y="1.6819" width="253.458" height="529.89" rx="29.7565" fill="white" stroke="#F72585" stroke-width="2.11039"/>
<path d="M228.65 9.69727C217.944 9.69727 200.151 9.69727 199.096 9.69727C196.532 9.69727 194.873 11.5971 194.27 15.0167C192.235 27.1755 185.6 28.0114 183.64 28.0114C181.981 28.0114 78.5392 28.0114 76.8051 28.0114C74.8449 28.0114 68.1347 27.0995 66.1745 15.0167C65.6467 11.5971 63.988 9.69727 61.3492 9.69727C60.2183 9.69727 42.5005 9.69727 31.7944 9.69727C21.0883 9.69727 11.5132 21.0961 11.5132 31.963C11.5132 42.8298 11.5132 489.892 11.5132 502.81C11.5132 516.261 25.0843 523.556 31.5682 523.556C35.1118 523.556 225.333 523.556 228.877 523.556C235.36 523.556 248.932 516.261 248.932 502.81C248.932 489.892 248.932 38.1183 248.932 31.963C249.007 21.0961 239.356 9.69727 228.65 9.69727Z" fill="white" stroke="#F72585" stroke-width="2.11039"/>
</svg>
