<svg width="240" height="517" viewBox="0 0 240 517" fill="none" xmlns="http://www.w3.org/2000/svg">
<path d="M218.65 1.69727C207.944 1.69727 190.151 1.69727 189.096 1.69727C186.532 1.69727 184.873 3.59707 184.27 7.01672C182.235 19.1755 175.6 20.0114 173.64 20.0114C171.981 20.0114 68.5392 20.0114 66.8051 20.0114C64.8449 20.0114 58.1347 19.0995 56.1745 7.01672C55.6467 3.59707 53.988 1.69727 51.3492 1.69727C50.2183 1.69727 32.5005 1.69727 21.7944 1.69727C11.0883 1.69727 1.51318 13.0961 1.51318 23.963C1.51318 34.8298 1.51318 481.892 1.51318 494.81C1.51318 508.261 15.0843 515.556 21.5682 515.556C25.1118 515.556 215.333 515.556 218.877 515.556C225.361 515.556 238.932 508.261 238.932 494.81C238.932 481.892 238.932 30.1183 238.932 23.963C239.007 13.0961 229.356 1.69727 218.65 1.69727Z" fill="#F72585" stroke="#F72585" stroke-width="2.11039"/>
</svg>
