<svg width="794" height="1281" viewBox="0 0 794 1281" fill="none" xmlns="http://www.w3.org/2000/svg">
<path d="M803.397 936.228C803.397 603.504 803.397 665.539 803.397 0.586792C722.525 521.276 0.264241 344.418 0.264256 677.142C0.264263 836.922 63.7688 990.158 176.807 1103.14C289.846 1216.12 443.158 1279.59 603.019 1279.59C817.715 1279.59 803.397 1298.98 803.397 1187.37C803.397 1020.81 803.397 1096.01 803.397 936.228Z" fill="#F72585"/>
<path d="M803.397 936.228C803.397 603.504 803.397 665.539 803.397 0.586792C722.525 521.276 0.264241 344.418 0.264256 677.142C0.264263 836.922 63.7688 990.158 176.807 1103.14C289.846 1216.12 443.158 1279.59 603.019 1279.59C817.715 1279.59 803.397 1298.98 803.397 1187.37C803.397 1020.81 803.397 1096.01 803.397 936.228Z" fill="#F72585"/>
</svg>
