<svg width="1920" height="2897" viewBox="0 0 1920 2897" fill="none" xmlns="http://www.w3.org/2000/svg">
<path d="M-30.8764 2114.44C-30.8763 1362.84 -30.8765 1502.97 -30.8765 0.878662C197.929 1965.02 1920 777.575 1920 1529.18C1920 1890.12 1765.74 2236.27 1491.16 2491.49C1216.58 2746.71 858.285 2894.06 469.97 2894.06C-51.5456 2894.06 -30.8767 2933.88 -30.8767 2681.77C-30.8765 2305.51 -30.8764 2475.38 -30.8764 2114.44Z" fill="#F72585"/>
<path d="M-30.8764 2114.44C-30.8763 1362.84 -30.8765 1502.97 -30.8765 0.878662C197.929 1965.02 1920 777.575 1920 1529.18C1920 1890.12 1765.74 2236.27 1491.16 2491.49C1216.58 2746.71 858.285 2894.06 469.97 2894.06C-51.5456 2894.06 -30.8767 2933.88 -30.8767 2681.77C-30.8765 2305.51 -30.8764 2475.38 -30.8764 2114.44Z" fill="#F72585"/>
</svg>
