<svg width="26" height="21" viewBox="0 0 26 21" fill="none" xmlns="http://www.w3.org/2000/svg">
<path d="M25.2526 2.63642C24.3268 3.03807 23.3477 3.30358 22.3458 3.4247C23.4028 2.79324 24.1949 1.79984 24.5751 0.628767C23.5818 1.22006 22.4945 1.63665 21.3604 1.86046C20.6024 1.03839 19.5929 0.491183 18.4904 0.304649C17.3878 0.118116 16.2545 0.302811 15.2682 0.829766C14.282 1.35672 13.4985 2.19613 13.0407 3.21635C12.5829 4.23656 12.4766 5.37987 12.7386 6.46698C10.7302 6.36539 8.76571 5.84245 6.97264 4.93212C5.17956 4.02179 3.59804 2.74443 2.33082 1.18303C1.88635 1.9592 1.6528 2.8382 1.65339 3.73263C1.65182 4.56325 1.85566 5.38139 2.24677 6.11418C2.63788 6.84697 3.20411 7.47168 3.89507 7.93269C3.09198 7.91084 2.30605 7.69534 1.60413 7.30453V7.36611C1.61015 8.52992 2.01797 9.65594 2.75861 10.5537C3.49925 11.4514 4.52724 12.0658 5.6687 12.2929C5.2293 12.4266 4.77311 12.4971 4.31384 12.5023C3.99593 12.4985 3.67881 12.4697 3.36544 12.416C3.6905 13.4172 4.31954 14.2921 5.16503 14.919C6.01053 15.546 7.03043 15.8938 8.08281 15.914C6.30574 17.3123 4.1117 18.0755 1.85046 18.0818C1.43875 18.0832 1.02737 18.0585 0.618774 18.0079C2.92749 19.4986 5.61797 20.2899 8.3661 20.2865C10.2625 20.3062 12.1439 19.9478 13.9002 19.2323C15.6566 18.5168 17.2528 17.4584 18.5955 16.1191C19.9383 14.7798 21.0007 13.1863 21.7208 11.4318C22.4408 9.67728 22.804 7.79687 22.7892 5.9004C22.7892 5.69101 22.7892 5.46931 22.7892 5.2476C23.7557 4.52683 24.5893 3.64324 25.2526 2.63642Z" fill="black" fill-opacity="0.25"/>
</svg>
