<svg width="49" height="34" viewBox="0 0 49 34" fill="none" xmlns="http://www.w3.org/2000/svg">
<path d="M47.5281 5.27902C47.2567 4.25785 46.7219 3.32586 45.9772 2.57633C45.2324 1.82681 44.3039 1.28603 43.2845 1.00811C39.5317 -0.000976443 24.5317 -0.000976562 24.5317 -0.000976562C24.5317 -0.000976562 9.53174 -0.000976443 5.77901 1.00811C4.7596 1.28603 3.83106 1.82681 3.08631 2.57633C2.34157 3.32586 1.80675 4.25785 1.53537 5.27902C0.531738 9.04811 0.531738 16.9081 0.531738 16.9081C0.531738 16.9081 0.531738 24.7681 1.53537 28.5372C1.80675 29.5584 2.34157 30.4904 3.08631 31.2399C3.83106 31.9894 4.7596 32.5302 5.77901 32.8081C9.53174 33.8172 24.5317 33.8172 24.5317 33.8172C24.5317 33.8172 39.5317 33.8172 43.2845 32.8081C44.3039 32.5302 45.2324 31.9894 45.9772 31.2399C46.7219 30.4904 47.2567 29.5584 47.5281 28.5372C48.5317 24.7681 48.5317 16.9081 48.5317 16.9081C48.5317 16.9081 48.5317 9.04811 47.5281 5.27902Z" fill="#F72585"/>
<path d="M35.5 15.634C36.1667 16.0189 36.1667 16.9811 35.5 17.366L21.25 25.5933C20.5833 25.9782 19.75 25.497 19.75 24.7272L19.75 8.27276C19.75 7.50296 20.5833 7.02183 21.25 7.40673L35.5 15.634Z" fill="white"/>
</svg>
